# xmcd CD database file
#
# Track frame offsets:
#	150
#	5346
#	24045
#	41612
#	58006
#	75968
#	92685
#	116547
#	141631
#	161157
#	175328
#	194817
#	216626
#	243123
#	264271
#	285796
#	304010
#
# Disc length: 4314 seconds
#
# Revision: 1
# Processed by: cddbd v1.5.1PL2 Copyright (c) Steve Scherf et al.
# Submitted via: jetAudio 5
#
DISCID=e210d811
DTITLE=Vargas Blues Band - The Best Of
DYEAR=1900
DGENRE=
TTITLE0=El alma
TTITLE1=Rock away the blues
TTITLE2=Coward's Knife
TTITLE3=Brand new blues
TTITLE4=Out of the blues
TTITLE5=Hot wires
TTITLE6=Do you believe in love
TTITLE7=Blues latino
TTITLE8=Magic of the gods
TTITLE9=Amapola negra
TTITLE10=Mexico city blues
TTITLE11=Celos
TTITLE12=Sunny Day
TTITLE13=Sad Eyes
TTITLE14=Exotic Mambo
TTITLE15=Agua Clara
TTITLE16=How Verso Are You
EXTD=
EXTT0=
EXTT1=
EXTT2=
EXTT3=
EXTT4=
EXTT5=
EXTT6=
EXTT7=
EXTT8=
EXTT9=
EXTT10=
EXTT11=
EXTT12=
EXTT13=
EXTT14=
EXTT15=
EXTT16=
PLAYORDER=
